<?xml version="1.0" standalone="no"?>
<!DOCTYPE svg PUBLIC "-//W3C//DTD SVG 20010904//EN"
 "http://www.w3.org/TR/2001/REC-SVG-20010904/DTD/svg10.dtd">
<svg version="1.0" xmlns="http://www.w3.org/2000/svg"
 width="256.000000pt" height="256.000000pt" viewBox="0 0 256.000000 256.000000"
 preserveAspectRatio="xMidYMid meet">

<g transform="translate(0.000000,256.000000) scale(0.100000,-0.100000)"
fill="#ffffff" stroke="none">
<path d="M1306 2435 c-7 -33 -9 -35 -46 -35 -48 0 -50 -10 -11 -33 30 -17 30
-18 16 -57 -8 -22 -12 -40 -9 -40 3 0 18 10 34 22 l30 22 30 -22 c16 -12 31
-22 34 -22 3 0 -1 18 -9 40 -14 39 -14 40 16 57 39 23 37 33 -11 33 -37 0 -39
2 -46 35 -3 19 -10 35 -14 35 -4 0 -11 -16 -14 -35z"/>
<path d="M1130 2394 c-59 -53 -83 -106 -83 -179 0 -87 51 -172 126 -211 24
-13 28 -20 25 -52 l-3 -37 -60 -7 c-199 -25 -393 -127 -548 -287 -120 -125
-194 -258 -237 -426 l-18 -70 -67 -5 c-104 -8 -105 -10 -105 -242 0 -187 0
-189 25 -213 20 -21 34 -25 80 -25 l55 0 0 -255 0 -256 25 -24 24 -25 768 0
c862 0 846 -1 993 71 209 104 350 332 350 569 0 160 -67 326 -178 438 -37 38
-76 75 -88 83 -11 8 -30 42 -43 76 -113 305 -427 553 -758 598 -50 6 -53 9
-53 35 0 24 7 32 43 48 92 41 144 109 125 164 -19 54 -67 62 -150 23 -128 -60
-218 -10 -218 121 0 34 5 75 10 90 16 40 6 40 -40 -2z m352 -659 c31 -8 76
-24 100 -34 40 -18 41 -20 15 -20 -38 -1 -77 -42 -77 -81 0 -19 9 -40 25 -55
23 -24 29 -25 167 -25 l143 -1 39 -47 c21 -26 50 -68 64 -92 24 -40 24 -43 7
-36 -11 4 -56 10 -100 13 -164 10 -335 -54 -464 -173 l-69 -64 -416 0 c-452 0
-428 -3 -406 54 9 26 10 26 125 26 110 0 117 1 140 25 30 29 32 74 6 106 -17
21 -30 25 -105 29 l-86 5 25 38 26 37 215 0 c215 0 215 0 239 25 16 15 25 36
25 55 0 19 -9 40 -25 55 -23 24 -29 25 -157 25 -82 0 -128 4 -123 9 48 47 213
117 330 140 68 14 267 5 337 -14z m473 -550 c256 -67 415 -329 350 -578 -45
-173 -178 -307 -350 -352 -251 -65 -513 94 -580 350 -89 343 237 669 580 580z
m-1475 -305 l0 -80 -80 0 -80 0 0 80 0 80 80 0 80 0 0 -80z m480 0 l0 -80
-160 0 -160 0 0 80 0 80 160 0 160 0 0 -80z m276 58 c-4 -13 -12 -49 -19 -80
l-12 -58 -42 0 -43 0 0 80 0 80 61 0 c59 0 61 -1 55 -22z m-516 -498 l0 -200
-120 0 -120 0 0 200 0 200 120 0 120 0 0 -200z m499 139 c21 -106 76 -210 159
-301 l34 -38 -66 0 -66 0 0 55 c0 67 -29 105 -80 105 -51 0 -80 -38 -80 -105
l0 -55 -120 0 -120 0 0 200 0 200 163 0 163 0 13 -61z"/>
<path d="M1225 1575 c-16 -15 -25 -36 -25 -55 0 -19 9 -40 25 -55 15 -16 36
-25 55 -25 19 0 40 9 55 25 16 15 25 36 25 55 0 19 -9 40 -25 55 -15 16 -36
25 -55 25 -19 0 -40 -9 -55 -25z"/>
<path d="M1785 1095 c-23 -22 -25 -31 -25 -128 l0 -104 -35 -37 c-97 -103 -23
-266 121 -266 33 0 47 -9 120 -80 92 -90 124 -101 169 -55 46 45 35 77 -55
169 -71 74 -80 86 -80 120 0 46 -24 100 -56 125 -23 18 -24 25 -24 125 0 100
-2 108 -25 131 -15 16 -36 25 -55 25 -19 0 -40 -9 -55 -25z"/>
</g>
</svg>
